<svg width="100" height="100" viewBox="0 0 100 100" fill="none" xmlns="http://www.w3.org/2000/svg">
<g id="css3">
<path id="Vector" d="M94.2 0L86.2 90L50 100L14 90L6 0H94.2Z" fill="#525252"/>
<path id="Vector_2" d="M79.3 84.3L86.2 7.39999H50.2V92.4L79.3 84.3Z" fill="#626262"/>
<path id="Vector_3" d="M24.4 40.7L25.4 51.7H50.1V40.7H24.4Z" fill="#EBEBEB"/>
<path id="Vector_4" d="M50.1 18.4H22.4L23.4 29.4H50.1V18.4Z" fill="#EBEBEB"/>
<path id="Vector_5" d="M50.1 80.9V69.4L37.8 66.1L37 57.3H31H25.9L27.4 74.6L50.1 80.9Z" fill="#EBEBEB"/>
<path id="Vector_6" d="M63.6 51.8L62.3 66.1L50 69.4V80.9L72.6 74.6L72.8 72.7L75.4 43.6L75.7 40.6L77.7 18.3H50V29.3H65.6L64.6 40.6H50V51.6H63.6V51.8Z" fill="white"/>
</g>
</svg>
