<svg width="100" height="100" viewBox="0 0 100 100" fill="none" xmlns="http://www.w3.org/2000/svg">
<g id="js" clip-path="url(#clip0_1_60)">
<path id="Vector" d="M100 0H0V100H100V0Z" fill="#D1D1D1"/>
<path id="Vector_2" d="M67.2 78.1C69.2 81.4 71.8 83.8 76.5 83.8C80.4 83.8 82.9 81.9 82.9 79.2C82.9 76 80.3 74.8 76.1 73L73.8 72C67 69.1 62.5 65.5 62.5 57.8C62.5 50.8 67.9 45.4 76.3 45.4C82.3 45.4 86.6 47.5 89.7 52.9L82.4 57.6C80.8 54.7 79.1 53.6 76.4 53.6C73.6 53.6 71.9 55.3 71.9 57.6C71.9 60.4 73.6 61.6 77.7 63.3L80 64.3C88 67.7 92.5 71.2 92.5 79.1C92.5 87.6 85.9 92.2 76.9 92.2C68.2 92.2 62.5 88 59.8 82.6L67.2 78.1ZM34 78.9C35.5 81.5 36.8 83.7 40 83.7C43.1 83.7 45 82.5 45 77.8V45.8H54.4V78C54.4 87.7 48.7 92.2 40.4 92.2C32.9 92.2 28.5 88.3 26.3 83.6L34 78.9Z" fill="black"/>
</g>
<defs>
<clipPath id="clip0_1_60">
<rect width="100" height="100" fill="white"/>
</clipPath>
</defs>
</svg>
