<svg width="100" height="100" viewBox="0 0 100 100" fill="none" xmlns="http://www.w3.org/2000/svg">
<g id="typescript" clip-path="url(#clip0_1_51)">
<path id="Vector" d="M0 0H100V100H0V0Z" fill="#5F5F5F"/>
<path id="Vector_2" d="M48 37H52.8V45.3H39.8V82.1L39.5 82.2C39 82.3 32.9 82.3 31.5 82.2L30.4 82.1V45.3H17.4V37H21.5C23.7 37 29.5 37 34.3 37C39.3 37 45.4 37 48 37ZM84.6 78.3C82.7 80.3 80.6 81.4 77.2 82.4C75.7 82.8 75.5 82.8 72.1 82.8C68.8 82.8 68.5 82.8 66.9 82.4C62.7 81.3 59.3 79.2 57 76.2C56.3 75.4 55.3 73.6 55.3 73.4C55.3 73.3 55.5 73.2 55.7 73.1C55.9 73 56.3 72.7 56.7 72.5C57 72.3 57.7 71.9 58.1 71.7C58.5 71.5 59.7 70.8 60.8 70.1C61.9 69.5 62.8 68.9 62.9 68.9C63 68.9 63.2 69.1 63.4 69.4C64.3 71 66.5 73 68.1 73.7C69.1 74.1 71.2 74.6 72.2 74.6C73.1 74.6 74.9 74.2 75.8 73.8C76.8 73.3 77.3 72.9 77.9 72C78.3 71.4 78.4 71.2 78.3 70C78.3 68.9 78.2 68.6 77.9 68C77 66.6 75.8 65.8 71 63.7C66 61.5 63.8 60.2 62 58.4C60.7 57.1 60.4 56.7 59.5 55.1C58.4 53 58.3 52.3 58.3 49.2C58.3 47 58.3 46.3 58.6 45.5C58.9 44.4 60 42.2 60.5 41.7C61.5 40.5 61.9 40.2 62.6 39.6C64.7 37.8 68 36.7 71.2 36.6C71.6 36.6 72.7 36.7 73.9 36.7C77.1 37 79.3 37.7 81.4 39.4C83 40.6 85.4 43.6 85.1 44C84.9 44.2 78.7 48.4 78.3 48.5C78.1 48.6 77.9 48.5 77.5 48.1C75.4 45.6 74.5 45 72.5 44.9C71 44.8 70.3 45 69.3 45.6C68.3 46.3 67.8 47.3 67.8 48.8C67.8 50.9 68.6 51.9 71.6 53.4C73.5 54.4 75.2 55.1 75.3 55.1C75.5 55.1 79.5 57.1 80.5 57.7C85.4 60.6 87.4 63.5 87.9 68.6C88 72.3 87 75.8 84.6 78.3Z" fill="white"/>
</g>
<defs>
<clipPath id="clip0_1_51">
<rect width="100" height="100" fill="white"/>
</clipPath>
</defs>
</svg>
